<svg xmlns="http://www.w3.org/2000/svg" viewBox="0 0 1690.03912 207.4718"><g id="bfef85bb-942d-4c1f-a48e-2686fece9f5c" data-name="Layer 2"><g id="bcbd1a25-6af5-4334-8a48-b0ea75eebec4" data-name="Layer 1"><path d="M182.11841,124.17017a9.13073,9.13073,0,0,1,.78393-1.44092,7.42015,7.42015,0,0,0-1.00341-.8999c-1.25684-1.11963-3.76172.24145-2.3042,1.95459C180.27148,124.544,181.76294,124.968,182.11841,124.17017Z"/><path d="M187.981,122.6377c.07324-.0962.13672-.19239.20508-.28882-2.09839-1.155-3.769-1.83081-5.2837.38037C184.30957,124.17773,185.554,125.8252,187.981,122.6377Z"/><path d="M0,45.4118c15.75,1.32,32.26.11,45.09,9.25-.75,1.81-2.16,1.75-3.46,1.64-13.86-1.17-27.73-2.15-41.63-2.68005v36.48c17.39,3.11,36.35,5.8,43.89.54a3.16809,3.16809,0,0,1,2.84.25c5.94,4.42,13.94,1.29,19.91,5.57a4.34842,4.34842,0,0,0,4.79.24c9.02-6.22,18.6-2,27.03.13,12.65,3.19,25.87,2.78,38.17,7.21,3.35,1.06,7.61-2.38,10.45-.05,6.2,8.32,16.01,4.64,23.84,7.39,1.75.62,4.67005.87,5.76-.12,5.85-5.32,8.09,1.19,11.09,3.45,2.29,1.73,2.51,4.68.42,7.64.44.24.89.5,1.38.76,6.43,3.52,14.5,1.51,21.33,5.84-4.38,16.55-13.16,8.39-15.63,19.71-2.81,10.77-14.41,1.16-10.15-6.12,2.01-2.56,5.15-4.35,4.43-8.31-4.1-1.88-8.48.69-12.58-.8-1.54-7.3-4.85,1.42005-8.04-.92-5.18-4.54-11.54-2.35-16.62-1.82-7.21,1.05-14.58-.84-21.48,1.34-1.92005,4.18,6.53,3.22,4.23,7.66-1.44,2.91-4.51,1.51-6.92.59-2.76-1.05-5.58-5.62-8.33-1.03-6.25,10.14,6.29,11.03,2.57,15.6-1.49,1.61-3,.36-4.2-.84-4.32-4.41-13.4,2.25-8.6,7.3,3.84,5.98-6.3,3.06-8.11005,6.51-1.82,2.7.55,6.85,4.32,6.63a41.18465,41.18465,0,0,1,18.81,3.01c2.78,1.15,4.54.99,4.18005,4.59-.16,3.26,6.71.03,3.56995-2.12006-1.62-1.23-2.52-3.01-.24-3.59,8.33-2.12,4.03-10.43,7.61-14.84,1.22-2.1-6.06-5.95-6.12994-9.68-.71-3.09.12-6.3,2.71-7.98,3.89-1.91,6.98,5.03,9.97,6.89,2.58,2.22,3.57,4.18,1.16,7.52-3.88,5.35-3.01,12.03-4.42,18.63,8.67,4.25,16.33-9.76,21.6-.18,3.65,4.54,8.72-3.67,11.79-4.9,2.29.59,2.53,2,3.12,3.13995,4.29,8.29,4.32,8.33,12.12,2.5,5.28-3.49,9.78-.31,16.29-5.97,4.13,9.37,6.32,9.98,13.17,3.37,1.99005-1.92,3.26-2.99,5.61-.82a3.95692,3.95692,0,0,0,5.48.1c7.04-5.81,15.26-1.25,23.18-2.2,2.82-.23,5.16-1.13,5.13-4.75-.07-7.92,5.46-13.29,8.99-19.61,2.91-5.2,6.83-6.47,12.39-5.83,8.29.97,12.89,4.96,13.84,13.44.18,1.58-.8,3.15,1.38,3.97,1.64.3,3.91,3.02,1.64,4.05-2.17.33-3.16-1.19-3.33-2.82-.53-5.04-5.66-5.53-8.27-8.5-7.61-2.57-7.59,14.51-9.41,19.23-.82,3.06,2.14,5.75,5.18,6.29,4.4.26,3.62006-5.8,4.81-9.13,4.41,2.99,3.09,10.47,9.54,10.66a2.44574,2.44574,0,0,0,1.02-3.31c-.01-.01-.01-.03-.02-.05-3.21-7.26,6.85-8.34,8.36-1.64,3.27,8.13,6,9.52,13.37,4.68,3.79-2.49,7.01.79,10.29-.77,1.72-10.18-11.67-7.81-12.54-15.77,6.07-1.72,12.21,4.14,17.91-.52.7.99,1.36,1.5,1.38,2.02.31,12.24,2.97,15.36,14.78,16.95,1.25.17,3.1.19,3.81-.55,4.64-4.85,13.43-4.46,15.61-12.4.58-2.07,2.33-2.17,4.01-1.42,3.23,1.43,5.62-1.38,8.57-1.6,2.86-.21,4.08-2.27,2.91-5.02-1.1-2.88-4.82-2.84-6.66-1.06-1.06,3.54-3.5,3.45-6.23,2.33-5.15-2.29-.19-8.53,3.71-9.02,7.69-2.03,14.46,4.01,21.86,5.51,1.72,3.43-2.98,3.97-2.87,6.98.48,2.86,5.31.29,5.61,3.8-5.41,4.13-12.71-9.1-11.14,10.74,3.55-1.77,8.11,3.67,10.91-2.73.44-1.01,1.97-.94,2.64-.36,4.97,4.4,11.49,2.19,17.06,4.11,3.56,1.22,7.1.39,10.63-1.17,25.24-13.35,32.01,8.38,41.85-2.56,7.19-8.61,16.48-5.89,23.81-3.24,9.05,3.28,17.96,3.46,27.01,3.62,5.13.08,10.33,3.19,15.43006.22,1.88995-3.93-6.03-4.47-2.2-8.22,2.09-1.93,5.56-.14,7.06,1.54,3.03,6.24,5.64,5.56,9.97.65,4.3-4.07,22.73-1.19,27.62,4.95,7.79,8.12994,11.96,4.74,19.73-.5,2.01-.47,4.21-.12006,4.99,2.15.6,4.53-6.2,4.06-9.15,5.18,2.17,6.66,13.2.61005,18.08.52,3.92-.45,8.06.89,12.1-1.36,11.14-1.52,22.8,5.59,34.56,2.75,4.84-.83,9.12-1.5,12.49,4.6a13.65943,13.65943,0,0,0,13.42,6.74c6.59-.6,13.13,1.96,20.09-.32995,4.95-1.62006,10.84-1.94,15.47,2.71a6.49467,6.49467,0,0,0,6.64,1.28c14.88-4.6,29.78,1.61,44.91-2.24,6.32-.44,12.68-.66,18.62,2.25,6,2.84,14.54-5.11005,25.9-3.49,1.63-.01,4.51.12,4.69007.78,2.31994,8.29,9.90991,3.56,14.49,6.08,10.33,6.85,18.36987-4.85,21.83984,1.33,3.51,4.86,13.41016-1.39,9.92017-6.93-3.36011-5.05,2.28992-9.75,4.27991-5.78.62,5.8,6.31994,6.2,8.92,5.6,4.35-1.01,6.03,5.49,9.09,2.74a16.69308,16.69308,0,0,1,9.49-4.16c1.85-.29,3.86-2.53,5.51-.98,3.59,3.36,6.94006,5.6,11.48,1.71,2.27-.03,3.30993,3.06.91,3.83-3.62,1.6-3.78,4.21-2.4,7.38h6c2.18-2.58,1.06994-6.56,4.29-9.52,3.95,2.28,8.37,5.76,12.89.54-.31006-4.78-11.33008-5.5-6.26-10.87994,2.04-1.92005,2.63989-6,6.5-5.34,3.55.6,1.99,4.52,3.56995,6.53,4.54,9.43994-5.04993,10.7,11.24017,10.71,11.78979-2.43,11.16992,16.19,19.32983-4.04,2.11011,3.35,3.82007,6.21,8.11011,5.24,3.06006-.69,6.33984.7,9.60986-1.22,5.46-3.2,11.27-6.01,17.79-2.45,2.55005,1.38995,3.30005-1.08,4.82007-2.14,5.49-3.83,5.93994-3.62,9.06006,3.15,1.28,2.77,11.58984,6.05,14.82983,4.4,19.25-11.57,23.55005,1.72,32.47-11.17,12.03,12.43,13.03-.61,20.49,9.71,9.76,9.22,5.26-9.37,14.30005-3.78a5.48965,5.48965,0,0,0,5.69995-.77c5.97022-3.75,9.08008,8.97,19.84009-2.38995,1.52-1.79.13013-3.24-1.65991-1.97-9.02.97-13.67017-2.05-16.52-10.7-7.48-6.51995,9.21-9.41.91992-17.55,9.92993.2,18.84009-1.54,27.68994,1.29,2.42017.77,5.28.27,7.94019.21,29.75-1.68,60.12988.65,89.55981-3.34,2.66016-1.06,5.58008-.87994,9.31006,1.48a71.98274,71.98274,0,0,1-28.81006,4.5c-7.06982-.26-13.81982.99-20.73,1.34-2.93994.14-5.05981.45-5.02,4.35.03,3.32-2.76,4.45-5.61987,4-10.01-.78-.73-9.47-10.15991-8.71-17.96021-.13-35.91016-.22-53.87012-.07-5.87988.05-8.97,5.68-7.3501,12.49a6.56809,6.56809,0,0,1,5.75,2.1c1.31006-.02,2.63013-.05,3.9502-.07,8.5-9.84,15.17993,16.38,32.82983,10.3,5.89014,4.76,10.62012,5.29,13.83008-3.06.54-1.42,3.02.08,4.51.66,3.6001,1.22,2.23,5.57,6.11987,6.73,9.76-10.33,10.82007,3.65,17.46021-1.18,2.93994-2.9,6.43994-2.98,10.09985-1.51,5.84009-6.77,13.03-.16,19.3501-1.95,21.29-6.21,23.81006,7.08,31.87988,4.58,4.92017-1.08,10.18018-4.02,13.47,1.82,3.01-1.31,2.41016-3.28,2.97022-4.73,5.62988-11.43,15.50976,7.32,24.31982-.49,5.42017,4.67,8,.43,12.07007-2.64,1.76-1.31994,8.65991-1.87994,11.11011,3.44,1.7998-.08,3.60986-.16,5.41992-.23,2.29-2.55,4.33984-6.35,2.41992-9.61-1.72-.45-3.33008-1.03-3.76-3.06-.3-.14-.59985-.26-.88989-.37-.30005-1.65-1.03-3.35.78-4.47,4.36987,2.56,8.78979.4,13.03-.24,3.98-.61,4.74-4.61,2.09985-10.36,14.08008-.28,27.42993,2.44,40.82007,4.77,7.58984,4.46,12.6499-7.23,19.93994-3.47,5.57007,2.19,11.52.86,17.32007,2.81,4.15991,1.41,10.05005,2.9,14.90991-1.27-11.54,15.45-14.17993,5.88-29.6499,14.05-3.05005-3.38,3.94995-6.08-.23-9.06-3.7002-2.63-6.8-.74-9.9502,1.12994-.05981,1.83.84009,4.42-1,5.21-2.99,1.11-3.28979-4.09-5.37988-5.53-1.25.06-2.5.13-3.75.2-3.26,5.73-14.44995-4.34-21.56006,4.56-2.84985,3.13-4.56006.24-6.60986-1.11-2.43018-1.77-4.64014,1.1-3.26,3.34,2.82983,4.66,7.47,7.51,11.55005,10.87,1.48,1.21,3.12988.02,4.51977-.93,13.72022-9.48,16.74,6.93,30.16016-6.14,3.98,2.51,5.60986,8.9,12.34985,5.9,3.91016-1.74,9.1001,2.66,13-1.9a2.53292,2.53292,0,0,1,3.46021-.76c8.44995,5.22,15.05981-1.53,22.01977-4.02,5.24024-1.87,8.52-2.13995,12.03,2.91,6.03,6.94,9.36011-8.34,3.26-10.92-2.17993-1.42-4.35986-3.09-5.23-5.81-6.34985-.14-9.42993,14.42-15.26,4.96-1.51-2.72-4.26-.9-6.53-2.21,3.90015-9.07,14.6001-4.44,21.93018-4.44,5.09985-2.66,9.87988-5.16,15.2998.14,3.65015,3.73,11.56006-7.85,15.06006-2.32,4.41016,4.74,4.08008,17.2-4.85986,11.7-3.87012-2.67-7.96-2.88-12.81006-1.29a21.70268,21.70268,0,0,1-.6499,11.55c6.98-1.16,13.48-1.11,18.96-3.45,6.18994-2.63995,12.55981,2.73,18.71-2.02-1.37012-4.03-5.5-5.14-8.33008-7.59-10.37988-7.35,19.19995-15.95,24.15015-12.21,3.91992,1.45,8.24,1.73,11.84985,4.01a3.27393,3.27393,0,0,0-.01.7,2.24761,2.24761,0,0,0,.09009-.64,1.42558,1.42558,0,0,1-.08008-.22c10.90015,5.9,11.04-13.75,15.06006-5a1.96923,1.96923,0,0,0,2.52,1.21,2.00119,2.00119,0,0,0,.77-.48c5.36987-6.02,12.29-.98,18.43994-2.44,3.67993-.87,8.54,2.2,12.92993-.31,9.19995,5.31,16.04-5.33,25.15015-3.12,4.85986,1.71,9.18994,7.08,15.2998,3.02.27-.18,1.74024.83,2.17017,1.57,5.55005,8.4,8.55005-8.05,16.52-2.56,6.27,1.03,14.80981-1.07,21.52,1.5,3.61987,1.08,6.96,2.18,10-1.32,1.38806-1.45673,3.44824-1.1792,5.479-.69666V146.33148a9.78956,9.78956,0,0,0-5.479-1.14972c-3.27.33-6.16016,2.51-9.67017,1.91-3.25-.56-5.59985-3.75-9.28-3.09-2.47,2.54,3.59009,3.84.88013,6.65-3.56006,4.11-14.91992,4.19-9.63013-3.03.89014.88,1.64014.55,2.07007-.41.11011-1.59-2.78-1.93-2.26.16-7.02.96-11.15991-.66-15.38989,5.35-4.68018-.33-.29-6.57-4.41016-7.48-3.07983-.61-2.35986,2.37006-3.22,3.89-1.35986,2.39-3.65991,3.88-5.37988,1.07-4-6.49-11.64014-7.51-16.58008-11.68-7.37988-6.21-15.87988-7.15-24.3999-10.05,3.11987-8.77,14.77-2.71,21.41992-5.22,8.26-1.94,17.79-1.86,22.98-10.97-4.18994-5.7-14.49-6.38-12.68994-16.78,11.31006,1.58,22.32007-2.62,33.71-1.18,3.82007.48,7.87012-1.06,11.83008-1.53,7.62988-.91,14.12988-5.99,23.26-1.72a13.445,13.445,0,0,0,2.239.79284V77.79584c-24.10461.80554-46.86645,5.16833-70.019,2.65594,12.48.24,24.72-2.93,37.12988-2.78,11.103.44672,22.26-5.15564,32.88916-2.712V0H0Zm29.14,42.48a1.34545,1.34545,0,1,1,.05-2.66,1.57918,1.57918,0,0,1,1.5,1.09A1.55566,1.55566,0,0,1,29.14,87.89178Zm92.17,75.87c7.2-.52,7.79-.03,11.18,9.1C125.53,172.37177,126.46,164.87177,121.31,163.76178Zm41.51-8.53c0,2.33-3.78,2.64-3.64-.18C159.33,153.33179,163.13,152.93176,162.82,155.23181Zm-.04-10.36c.24-3.15,5.99-2.47,6.17.61C169.2,148.63177,162.56,147.46179,162.78,144.87177Zm13.47-11.01c-.02-.19-.03-.3-.04-.38.06.2.25.54.75.04C177.6,134.23181,176.3,134.93176,176.25,133.86182Zm15.55,35.98c-1.21-.62-.98-2.12.25-2.85C193.98,167.63177,193.93,170.0318,191.8,169.8418Zm1022.58,4.06c-.6499,2.18-3.90991,1.02-2.91992-1.01C1212.24005,171.68176,1214.86993,171.98181,1214.37994,173.90179Zm369.81006-30.89c-5.03.53-10.07007,1.07-16.02,1.7C1573.28009,137.86182,1579.34991,143.24176,1584.19,143.01178Zm-21.71-1.26c-1.26,3.39-3.8999,4.41-6.87012,5.17C1557.58014,142.79181,1557.58014,142.79181,1562.48,141.75177Zm-241.16992,37.77c2.34985,1.87,4.10986,4.28,6.32983,5.4C1325.19,188.77179,1319.27008,184.50177,1321.31012,179.52179Zm-18.71021-.95c.40015-2.85,4.58008-1.5,3.88013,1.27C1306.18,182.68176,1302.0401,180.8418,1302.59991,178.57178Zm-4.30981-14.87c2.23-.29,2.43994,1.9-.03,2.14C1296.15,165.82178,1295.69,163.57178,1298.2901,163.70178Zm-5.47,17.55c-.80005,1.35-2.19019,3.31-3.76,1.45-1.55005-1.81-4.63013-1.31-5.34009-4.07C1285.7901,175.85181,1295.42,176.83179,1292.82013,181.25177Zm-18.47022-1.63a15.15245,15.15245,0,0,1-9.06982,3.19C1267.43,179.25177,1269.45,177.2218,1274.34991,179.62177Zm-202.3999-6.89c6.09009.61,8.64014-2.96,10.63013-7.95,3.25-5.04,11.63989-1.84,16.80981-2.71-9.79,3.1-10.22,21.41-21.72,14.8-2.09985-2.08-6.01,1.46-6.84985-1.74C1070.60992,174.06177,1071.10992,172.65179,1071.95,172.73181Zm-26.02,11.55c2.51.08,3.8-4.26,6.88013-1.88.26,4.47-4.93018,2.47-7.6001,3.84A11.50845,11.50845,0,0,1,1045.93,184.2818Zm-9.97-27.82c.75-1.15,3.21-.49,4.07007,1.27,1.72,2.73-2.71,5.4-4.24,3.7a7.55894,7.55894,0,0,0-3.11011-2.56994A4.75556,4.75556,0,0,0,1035.96,156.46179Zm-2.94995,18.07c3.32007.87,2.15991,7.8-1.18994,8.11C1026.28009,181.26178,1027.66,174.05182,1033.01007,174.5318Zm-48.61011,19c-1.71.35-1.85986-1.3-1.77-2.55-.56982-3.09,3.62012-4.76,4.29-1.11C986.91,191.6618,986.06012,193.19177,984.4,193.5318Zm6.42017-50.49c-.34009,3.73-3.03,4-4.40015,3.55-10.81006-4.04-22.86987-1.79-32.83984-8.03C966.78009,137.9718,978.89,139.93176,990.82013,143.04181Zm-31.29,38.59c3.72-1.31,5.66992,5.53,1.31982,5.94-3.21.54-6.53979,1.59-10.1499-2.38A89.9841,89.9841,0,0,1,959.53009,181.63177Zm-29.69,1.09c3.91992,4.54-6.07007,8.32-8.42017,3.62C921.33008,183.73181,928.13,181.06177,929.84009,182.7218Zm-35.18018-1.5c4.99011-.18,4.79,5.75.53,5.86C889.45,187.93176,889.49,180.45178,894.65991,181.2218Zm-32.77991,4.61a4.86366,4.86366,0,0,1-2.17,3.93c-1.76.82-2.33.62-2.58-.18C855.76,187.11182,860.99,182.76178,861.88,185.83179Zm-25.94006-12.11c5.71008-1.93,18.48-.77,19.24,6.41-.40991,2.88-17.75.92005-22.35986,3.09.68994,3.66,4.7,1.5,5.18994,4.38-1.74,1.84-5.09009.91-5.16992.25-1.36011-10.46-14.78-5.11005-20.49011-12.78C815.94995,169.05182,821.58008,179.93176,835.93994,173.7218Zm-68.9,8.57c3.1,2.88995,5.75,4.19,8.98.18,4.28-2.28,6.71,6.24-4.37,5.19-2.19-.11-4.19-.11-6.15-.34C761.02,187.27179,763.86,179.30182,767.04,182.29181Zm-20.75,3.01c-.56-.19-1.13-.4-1.7-.61005C746.06,180.05182,750.57,183.2218,746.29,185.30182Zm-55.17-.75a3.13439,3.13439,0,0,1,2.03-.96,1.37716,1.37716,0,0,1,.5,1.37C692.72,186.76178,690.94,186.90179,691.12,184.55182Zm-26.62-11.88c-1.03,4.18-10.96,1.62-14.5,2.11-2.26-.16-4.59-.84-4.76-5.13C649.69,171.65179,664.42,167.65179,664.5,172.67181Zm-139.73-3.81c-.01,4.36-14.11005,2.78-18.08,1.19C513.87,162.54181,522.85,161.31177,524.77,168.86182Zm-76.51-13.91c1.22-3.51,7.15-2.6,7.55-2,5.76,9.55,7.79.48,10.48,5.14-1.64,9.13-9.26,2.91-13.77.11C450.58,157.46179,447.02,158.52179,448.26,154.95178Zm-6.47-21.39c1.27,1.72-1.13,1.53-2,.63C439.65,132.93176,441.1,132.83179,441.79,133.56177Zm-14.85-11.36a2.31068,2.31068,0,0,1,3.83,2.03C429.89,126.69177,425.84,124.33179,426.94,122.20178Zm-15.76,10.81c1.24-3.61,7.32-6.78,10.61-5.09,4.62,2.39,8.32,6.33,13.23,8.36.45.19.6,1.09.88995,1.66-.51,2.64-5.93,6.76-6.79,2.33-.38-2.59-3.07-2.3-4.2-3.72-3.06-3.86005-6-5.16-9.41-.48C413.71,138.95178,409.95,135.52179,411.18,133.01178Zm-8.43,12.42c2.31.61005,5.76.17005,5.62,3.84-.08,1.99-2.42,1.68-3.82,1.87-2.66-.01-4.88-.75-5.13-3.55C399.21,145.40179,401.04,144.98181,402.75,145.43176Zm-43.5,9.89c.12-2.06,2.79-.26,3.3-.05-.55,2.33-1.38,2.77-2.36,2.42C359.15,157.33179,359.1,156.31177,359.25,155.32178Zm-81.27-35.7c-9.56,4.24-18.71.83-30.29-.96C259.48,114.65179,268.68,117.98181,277.98,119.62177Zm-52.76,44.69c-.2-3.22,2.42-4.63,4.94-5.15,2.93006-.61,3.5,2.2,4.47,4.31C234.77,169.1618,224.98,170.4718,225.22,164.31177Zm-31.17-52.37c11.68,9.11005,35.21-3.24,40.83,12.4-2.49.57-4.36,1-6.35,1.46,3.31,4.16,6.48,8.12994,10.12,12.69995-4.87,2.28-9.29.07-13.6-.01v-.01c-4.9-.8.33-9.06-3.93-9.96-4.82-1.01-7.82-6.21-13.38-5.13C200.61,123.80182,192.03,122.26178,194.05,111.94177Zm-108.29-47.55c3.71-3.25,7.01-1.35,9.88-2.64a16.46024,16.46024,0,0,0,.1,2.72C95.93,66.3418,90.31,65.60181,85.76,64.39178Zm-47.78-37.33c16.19.78,32.4.55005,47.75,7.46,13.77,6.2,29.17,5.27,43.63,8.63,10.5,3.28,21.77,2.2,30.91,9.19-10.05,3.74-19.34.98-27.52-1.81-11.81-4.02-24.1-3.81-35.95-6.75-3.5-.1-13.97-5.76-15.49-1.7.07,3.89,4.95,5.13,8.19,5.6,6.57.81,12.64,3.80005,19.45,4.11005,4.45.21,6.83,4.63,10.7,8.01-5.9,3.35-11.08.42-15.99.99-1.87994.21-5.61-3.17-7.24-1.5-7.7-9.62-23.19,2.54-31.06-7.45,1.47-3.53,5.95-.75,7.35-3.8a2.23712,2.23712,0,0,0-1.6-2.23c-13.72-4.84-28.73-6.54-41.74-13.07C30.35,27.8418,33.45,26.8418,37.98,27.06177Z"/><path d="M1573.97614,177.16211c-5.70264,2.2146-29.09815-.023-29.80372-7.76758-.44238,1.45508-2.47656,1.45068-2.98535,2.73047-.91552,2.30249.90479,5.55347-2.29052,7.063-2.8252,1.335-4.98438-.34912-7.31934-1.70239-5.41553-2.46241-4.06885,6.345-4.58838,9.38427-.126,2.00147,1.18994,3.79737,2.80127,3.0813,8.15967-3.6272,17.37305-.499,25.38135-4.10278,15.96435-8.41211,18.751,7.34546,24.229,1.54419C1584.93219,183.09253,1581.14313,174.00269,1573.97614,177.16211Z"/><path d="M1603.22809,174.12476c-.76221-.81348-3.53369-.71045-4.71778.02465-3.02783,1.88013-6.44482.77979-9.85058,1.78345-.73731,3.23023,1.376,6.29419.22168,9.67627-.78662,2.30566,1.51514,3.36231,3.80224,1.94946,7.28418-9.03466,19.72022,5.312,31.32032-3.38037,1.52051-1.03662,4.84228.56958,7.52881.98609-.56788-1.20093-1.33838-2.08326-1.34522-2.97266C1629.40143,169.23706,1610.13239,183.85718,1603.22809,174.12476Z"/><path d="M1638.51422,184.44214c7.0752,4.166,8.59717-4.86817,13.812-3.61914C1646.92828,176.919,1646.92828,176.919,1638.51422,184.44214Z"/><path d="M1352.48053,177.71924c-1.31787.793-2.8208,3.75659-.23438,3.718C1354.78278,181.56714,1355.10309,176.47681,1352.48053,177.71924Z"/><path d="M0,115.398v5.918a13.98591,13.98591,0,0,0,8.83521-3.25226C5.845,117.07593,2.90723,116.2038,0,115.398Z"/><path d="M0,157.5473c.16278-.03552.3205-.06207.48706-.10418a5.81626,5.81626,0,0,0-.48706-.47Z"/><path d="M101.25586,156.83154c-2.39575-6.66235,10.72436-7.77588,8.20264-19.10083-1.02539-6.397-2.04688-8.65771-8.25-7.53125-8.92017,2.75733-19.15332-1.71313-27.39356,1.04908-2.13818,4.39575,3.77442,7.01708-.084,10.16625-7.52295,3.71534-3.35742-9.65136-9.61084-2.86425-8.55567,4.51123-1.40235-8.11646-5.24854-6.65747-5.54712,1.50683-4.739-4.67212-7.06738-5.54883-4.56885-.13013-6.17481,7.04077-9.97461,3.67651-4.22168-3.738-7.60669-1.90039-10.78345.032-8.88794,7.13477-13.51928-6.05078-19.36059,1.89649C7.5144,136.5564.40576,131.91235,6.3396,140.15063c3.636,1.56714.17065,5.05982-1.99121,2.00806-1.272-.07934-2.54419-.15869-4.07251-.25415-.208,3.18408,2.56567,4.54663,3.26221,7.09863,1.47094,5.39038,2.10449,5.27759,5.86108.53492.58862-.74317,1.03711-2.27637,1.96313-1.6941,6.46192,4.063,13.26636-.62573,19.085.5105,8.61035,1.6814,15.69995.9895,23.19384-2.98413,6.54956-3.25683,8.44361,12.61426-3.33545,10.29981.56348,2.84619,2.31763,4.70922,4.01026,4.7456a13.68589,13.68589,0,0,1,11.59131,5.86328c2.93872,3.69092,7.606-1.8977,9.3374-4.40259,2.32178-4.77539,7.03271-4.52246,11.02954-5.676,3.8-1.27124,6.19409,5.49341,1.54834,5.57422-3.2688-.01563-10.86963,7.59546-8.31958,10.43872,3.03906,4.66479,13.79956-11.12573,20.156-12.23584C100.91846,159.43384,101.90015,158.35352,101.25586,156.83154Zm-10.64551-9.11133c-.95068,1.938-4.20093-.10107-2.97583-1.81469C88.7561,144.04077,91.884,145.71973,90.61035,147.72021Z"/><path d="M135.05249,114.72339c-7.2478-2.69946-14.57715-4.42578-22.259-1.94873C119.96191,116.42017,127.16919,119.60205,135.05249,114.72339Z"/><path d="M167.89893,122.09961c.77612-5.48071-10.96094-5.01416-14.66358-6.85962q-.57422.94373-1.14819,1.88745C156.16162,118.5835,163.65137,127.20337,167.89893,122.09961Z"/><path d="M374.29736,176.53418c2.17945,2.13672,9.08033-.436,5.78308-3.47217C378.26025,174.04736,375.34937,173.30322,374.29736,176.53418Z"/><path d="M29.28369,151.96289c-3.54394-.05664-2.47656,4.98145.67822,4.57788C33.61353,155.33716,32.70752,152.53394,29.28369,151.96289Z"/><path d="M73.0249,39.86182c.9253.582,1.74463.116,2.30713-.77832-.17773-1.40381-2.58179-2.54883-3.41431-1.07178C71.06055,39.38794,72.4502,39.5,73.0249,39.86182Z"/><path d="M81.15479,40.49805c-.76075-.55664-1.52125-1.113-1.52955-1.11914-2.2727-.96851-2.35522.46338-3.0144,1.00732C78.49878,41.48682,79.957,43.18042,81.15479,40.49805Z"/></g></g></svg>