<svg xmlns="http://www.w3.org/2000/svg" viewBox="0 0 1690.03912 422.6062"><g id="fc9e1f00-c08f-4881-bb19-488b601b6bc8" data-name="Layer 2"><g id="f4d7403b-d720-4eeb-a8d1-e05db2476776" data-name="Layer 1"><path d="M1690.03912,375.15479c-2.1853-.47022-4.29248-1.24292-4.269-5.05469-.34009-2.71-13.80005-.57007-18.99-3.89014-4.22-1.61987-2.58008-8.60986-7.14014-8.54-10.97,1.84009-20.53-11.3999-29.88989.28-9.81006,10.66016-22.65991-30.92993-38.46-8.87988-8.41016-5.7-10.93018-15.90015-17.49-23.08008-5.57007-6-15.36011,7.93994-21.67017-3.65991a4.59966,4.59966,0,0,0-3.33984-1.8c-7.11011-.23-11.69019-4.32007-15.36011-9.79-2.47-5.09009-8.04-1.22-11.6499-3.34009-2.93994-2.5498-5.47-2.71-8.77-.54-7.59009,5.49024-9.28-4.02978-15.22-6.88989-4.94019-3.76-8.57007-.90991-10.89014,3.93994-2.59985,6.41016-8.73,6.83008-8.23-1.07983-.68994-4.18018-2.66992-5.81006-6.93994-3.98-4.83008,2.05981-8.04-.29-11.13989-3.98-4.36011-5.19019-14.67017-6.98-19.42017-2.38013-8.32007,8.63013-10.09985-4.05-17.57007-6.08008-12.36987,14.82007-20.49-3.08984-30.85986-10.41992-6.96-8.11011-22.72,8.77-25.78-5.07007-2.77-9.75-8.19995-3.67993-16.57007-17.07983-3.10986-3.3-3.27-9.25-9.65991-9.62012-1.28-.07007-1.47-2.73-1.84009-4.36011-.60986-2.68994,1.38013-5.78979-2.13989-8.06982-5.74-3.72-9.25-10.28-16.78-11.91016-8.97-1.93994-17.1499-1.06982-24.77,4.07007-3.67993,3.04-7.22,1.97-11.04-.11987-7.93994.26-14.27-2.9502-19.65991-8.63013-6.75-4.53-11.55005,4.46-21.29-6.53-2.56006-2.7998-5.55005.72022-8.04,1.93994-7.42993,4.41016-22.31006-12.48974-24.35986-19.28979-1.2002-3.28-3.72-3.56006-6.23-1.06006-4.47022,6.06006-29.07007-3.02-34.5-6.47-7.25-5.5-9.63013,8.52-18.1001-2.08008-9.03-11.17993-11.02,14.6001-31.18994-11.6001-1-1.67993-1.5-3.73-3.38013-4.71972-4.57983.71972-7.49,6.73974-12.61987,4.61987-3.37012-1.40015-.6001-5.08008-2.02-7.04-2.41016-3.32007.18994-8.55-3.76-10.76-3.41992-1.90991-4.84009-5.37988-8.16016-8.16992-5.73,4.62988-11.82983,8.87988-16,15.3999-2.97,4.65015-10.62988,6.40015-14.57983,2.71-4.88013-4.55981-11.30005-8.06982-12.74-15.61987-.66016-3.48-2.71-6.13013-6.42017-6.88013-10.67993-2.15991-12.21-3.54-15.33984,7.53-1.15015,4.07007-2.52,5.74-6.79,4.19019-5.62012-2.06006-11.42993-3.6001-16.67993-6.63013-8.24-4.16992-3.65015-7.21-3.58008-14.36987.27-4.12012-1.96-6.18018-5.3501-3.91016-4.33984,2.8999-6.52978.46-9.33984-1.95-5.19995-4.45-10.72-7.03-16.96-1.77-2.3,1.92993-3.72022,1.31006-5.7002-.86011C953.77008,112.53,948.28,119.29,940.48,115.33008c-5.62-4-8.85,4.0498-14.75-.84009-5.62-3.21-5.67993-3.11011-8.62,2.41992-3.70008,6.95-4.39,7.1001-8.33.29C900.89,103.29,895.91992,133.77,887.21,93c-2.13989-8-5.85-10.54-13.23-7.96-3.41992,1.2-6.22,5.46-9.85-.28-2.97009-2.32007-5.74,5.26-9.74,4.78-2.04-6.52-17.75-17.01-18.64-4.33008-.23,2.02-.4,4.02.73,5.82007,2.27,3.59985,1.6001,7.74,2.18994,11.63989.32007,2.16016.93006,5.25-2.35986,5.54-2.96008.26-3.73-2.46-3.70007-4.88989.05993-5.96021-6.68006-10.25-4-16.90015.54992-1.34985-1.08-2.07983-2.34-2.67993-6.63-2.81006-14.12,1.83008-16.92,7.73-1.41,1.58008-3.17,2.58008-5.16.8-1.71-1.53-4.35-3.5-2.77-5.6499,2.02-2.74024,5-4.99024,2.95-8.59009-2.09-3.7-7.56-1.86011-10.1-5.28-4.37,3.32007-9.81-1.2-14.49,2.27-3.25,2.40991-8.57,2.58984-11.41.51-6.25-4.58008-11.74.56006-17.45-.18994-3.05-.40015-2.11,1.78-2.27,2.95-.33,2.46,1.15,4,2.79,5.87988,7.5,8.77-2.04,8.76-2.53,16.33008-.19,2.47,1.43006,6.31006-1.84,6.91992-8.78,1.71-15.66-9.81982-12.14-17.77978,1.21-4.71021,7.67-14.24024,4.38-18.14014-3.35,5-6.35,9.82007-8.19,15.32007-4.25,14.1499-11.85-2.88013-17.44,8C712.15,97.25,710.99,100.73,707,98.74c-13.21-8.23,10.7-22.63013-1.6-27.24a3.42549,3.42549,0,0,1-2.29-2.99c-1.72-10.42993-11.66-.7-10.71,5.3,1.9,2.75,5.34,8.43994.11,9.84985-9.76,4.38013-10.26-3.74-12.06-11.43994-4.35-15.36011-13.38-2.3999-20.76-7.01-7.83-8.33984-16.52,1.99-24.97-1.83984-8.98-5.40015-6.71,2.5-13.62994-.64014-3.65-.6001-7.6-6.40991-11.07.66992-.67,1.38013-2.93-.5-4.47-.88989-8.4-2.13989-16.75-4.1001-25.61-2.27-9.56,1.23-3.57,5.97-5.3,12.57007-4.11,1.8999-6-1.53-7.62-3.41016-3.97-4.58984-10.07-4.50976-14.64-7.66992-6.16-2.93994-8.29,10.33008-15.21,1.93994-3.07-3.56982-9.04-2.49-10.86-7.37988-4.18,1.8999-1.28,9.18994-7,8.66992-3.97-.35986-6.33-4.56006-10.18-7-3.25,8.54,11.99,14.11011,4.74,21.24-4.1,3.40991-8.23,3.05-11.9-1.78-2.93-5.84985-10.25-3.98-13.48-9.25-2.36-3.34985-4.21-6.71-9.1-2.75-5.33,1.83008-4.27-7.7998-3.9-11.01.59-4.82983-1.58-6.76-6.06-8.5-9.14-4.07983-10.13,14.27-17.32,9.43018-2.44-4.14014,4.72-6.02,2.78-11.3501-5.68.88013-12.46,7.40015-16.83-2.98-9.27,15.63013-17.69-1.92993-26.67,7.3999-3.49,4.14014-6.97,3.51-11.37.82007-4.53-2.77-10.88-2.85986-11.88-9.7-6.48,3-1.07,9.11987-1.27,13.88989.87,9.33008-8.03,8.89014-14.12,5.38013-2.9-1.6001-7.03.01-9.13-3.17993-2.29-3.78,2.93-9.98-.39-13.27-10.53-3.2002,2.37-15.48-6.42-22.77-3.58.32983-6.92,9.48-9.21,8.0498-1.64-2.98,4.08-8.98974-.8-10.12988-3.19-.71-5.52,3.06006-6,6.62988-.22,1.6001-.48,4.17017.38,4.79,8.97,6.53-.74,15.18018,4.76,21.84009-16.01,2.95-16.04,2.95-18.98-10.75-1.25-5.8-3.49-11.48-1.97-17.63989.36-1.47022.46-3.53-1.8-3.93018-8.73,2.11011-3.62,17.39014-9.89,22.23-2.99-7.49-2.99-7.49-9.51-10.62988C300.57,28.48,298.98,29.47,299.23,32.97c3.01,17.96,18.57,7.22,15.45,34.86011.38,3.06006-3.68,4.52978-5.27,2.47-.45-8.3-10.17-9.81006-12.45-17.05-2.88-6.15991-.77-13.8999-2.44-20.58008-1.69-10.44995-13.16.41016-18.5,2.14014-8.54,6-15.31-1.59009-6.89-5.18018,4.13-.77,8.86-.23974,12.24-3.36987,9.36-10.28-2.85-10.86011-8.29-16.3501-6.76-7.78979-9.62,1.1001-10.93,7.75-8.06-1.26977-8.65-9.17993-12.58-13.76-3.16.02-3.56,2.86011-5.12,4.40015-8.85,8.87988-9.36-1.39014-15.64-5.95A2.12154,2.12154,0,0,1,226.94.01V0h-3.99c-2.36,3.66992-2.16,9.24-9.1,9.3501-2.2.02978.03,5.17993-.47,8.66992-9.84-6.1499-10.43.75-19.38,1.38989-2.68-3.03.07-10.41992-6.24-9.71-4.16.46-2.86,5.99-3.26,9.76-8.4,1.49-11.54-17.03-18.29-6.54-1.77,3.41016-3.84,7.01-3.42,11.16016C166.23,26.76,166.94,20.72,170.86,21.7c1.03,10.39014-7.17,21.25-15.99,10.01-6.34,5.71-4.21,13.55005-5.82,20.6499-.72,2.49024-3.22,3.4502-5.64,3.09009-5.12994.72.45-23.35986,2.56-26.05981,2.63-4.82007,3.53-10.57007,5.21-15.92017-2.33-2.09009-3.22,1.8501-5.6.86011-1.12-3.02-2.36005-6.36011-3.57-9.64014-3.95.52-3.66,3.18994-3.11,5.29,1.55,6-.1,11.96.22,17.91992.85,6.58008-9.81,8.57007-10.02,1.26-.3-5.26977,1.92-10.45.89-16.37988-4.51.05005-8.34,6.38989-13.05,1.21-7.05.04-13.56,15.96-23.67,11.46-1.31-.52-3.18-.96-3.62.21-2.53,6.79-10.43,4.72-14.44,9.01C67.61,39.25,65.57,30.35986,58.73,45.7c-4.37,9.09009-11.76,14.24-21.81,13.77-5.58-.26-9.33,4.62012-14.82,3.90015-.4-.05-1.25995,3.45-1.91,5.31982-3.2.06006-4.33-2.79-6.33-4.33008C8.72,60.40991,4.34,58.91992,0,59.95V422.6062H1690.03912ZM118.07,51.35986c-1.77,2.58008-3.38,8.33008-7.33,6.39014-3.45-1.82007-1.18-5.3999.33-7.83008,3.63-5.82983,3.05-12.62988,4.32-18.99C124.83,36.90991,121.64,44.12012,118.07,51.35986Zm85.64-23.55981c3.13,3.37988,2.4,12.66992-2.79,11.57983C196.42,37.25,199.71,29.57007,203.71,27.80005ZM202.83,59.74c-3.53-.11011-5.48-1.97-5.61005-5.48C198.54,42.75,219.75,59.01,202.83,59.74Zm14.89-4.86011c-3.98-.48-3.66-3.95-3.85-6.77-.11-1.56982.5-3.8999,2.35-3.43994,3.6.89014,2.88,4.56006,3.57,7.08008C219.61,53.31006,218.9,55.02,217.72,54.87988Zm11.2-15.75976C228.35,31.51,221.57,26.28,220.82,17.98,232.52,24.42993,235.06,30.96,228.92,39.12012ZM250.47,46.98c.91-9.87988,11.4-5.52,11.78,2.6001C260.31,55.2,249.75,53.28,250.47,46.98Zm75.52,14.28c-2.61-.32007-1.97-4.56006.69-4.3C329.32,57.53,328.63,61.53,325.99,61.26Zm94.19-2.55c-1.3-3.46,4.3-6.62988,4.95-2.06006C425.73,59.78,421.32,62.24,420.18,58.71ZM666.7,101.99c-6.73,2-5.24-11.86987-13.63-7.57007-1.54.61011-3.19.86011-6.48-.73,7.15-5.41992,19.29-13.58008,20.31.46C666.34,96.84009,670.54,100.35986,666.7,101.99Zm29.03,16.82007c-10.66,3.2-7.57-37.32007.03-27.25C695.05,100.62988,702.27,110.06006,695.73,118.81006ZM799,105.78a18.59759,18.59759,0,0,0,8.9-8.63013C815.63,116.62012,788.71,115.47,799,105.78ZM952.06012,139.97a1.95061,1.95061,0,0,1,.09985-3.8999C954.43,136.02,954.91,140.25,952.06012,139.97Z"/><path d="M1126.68561,133.97339c.73291,1.87964,1.79053,4.46265,3.92969,3.53393,3.30371-1.43457,7.8413.92139,9.477-1.27514,3.32421-5.65113,8.47656,2.67724,9.73144,6.07641,2.44971-2.46582,3.01758-5.98266,6.07959-7.76342,2.47266-1.438,3.45264-3.801,1.40674-6.71509-2.39258-3.4082-4.38379-1.49268-6.57666.1018-3.0918,2.24781-5.56543,2.33033-6.24609-2.187-.30518-2.02539,1.62988-4.92456-2.04541-5.52148-5.9502-1.1272-5.97852,5.34009-8.48194,9.13476-7.00244-9.60131-8.85791-10.23461-16.53271-6.21972-1.84131.96313-3.71778,1.91992-3.42481,4.25171C1115.53082,133.70117,1124.70465,126.8208,1126.68561,133.97339Z"/><path d="M946.09619,110.65967c8.991.48584,7.11408-6.335,11.20685-5.88355,9.30688,3.52076,2.9519-13.32934,13.614-8.25854,7.52832-.03736-.17773-11.13477-4.98169-6.55469-4.0144,3.2561-9.79419,1.0376-13.42382,5.18066-1.18311,1.35059-2.921-.00854-4.13434-1.3728-1.37476-1.54565-.61621-4.58618-5.32886-5.95727C946.4231,95.95312,940.979,103.48584,946.09619,110.65967Z"/><path d="M1045.2403,114.81909c2.12988,3.21851-1.96875,6.85571,1.41894,9.38745,10.57959-2.7644,11.24268-10.87231,11.04346-20.57715-4.67237.438-8.80957,7.7439-12.70947.28589-4.84034,2.377-7.63819,11.90723-5.3335,17.09009C1044.30573,121.53125,1041.23346,114.81689,1045.2403,114.81909Z"/><path d="M976.49982,111.4978c4.05835-3.19067,5.12426,2.62378,9.64966,3.49976,3.92578-1.97876,4.75292-12.76929,6.0017-17.11035-2.3518-10.30323-15.69726,6.32715-17.425,10.72851C974.31769,109.5061,974.3692,113.05371,976.49982,111.4978Z"/><path d="M1078.4527,127.66553c4.02734-.39991,5.34179-4.313,7.80908-6.76221,2.25146-2.23486,3.56885-5.293.53613-7.65967-2.74218-2.14013-5.31006-1.46679-7.00586,2.13135-.76074,1.61328-3.05468,2.44507-4.06884,4.01C1073.92633,122.15649,1075.70905,127.36328,1078.4527,127.66553Z"/><path d="M1033.08356,103.8728c-.38184,5.91455-4.23242,9.98658-5.09668,16.59033C1038.02838,115.74731,1039.128,112.03784,1033.08356,103.8728Z"/><path d="M1168.773,142.33643c3.63477-2.35987,7.8042-.96778,9.05273-5.34131-.60546-.67383-1.28662-2.02417-1.86914-1.98291-3.74707.26538-4.35449-7.61475-8.69091-3.88794C1163.4444,134.40918,1169.1568,137.43628,1168.773,142.33643Z"/><path d="M905.24487,84.90381c-3.199,6.1914-3.199,6.1914,1.70972,15.19433C910.11255,94.85815,907.77051,90.59277,905.24487,84.90381Z"/><path d="M311.06592,17.77588c-.60474-4.04981-6.55884-10.43115-7.07788-2.42334C302.207,20.33057,310.06714,24.0498,311.06592,17.77588Z"/><path d="M922.66846,108.06226c5.70581-6.76123-3.53589-18.0354-5.61573-7.89478C917.11938,103.61572,920.65576,104.5144,922.66846,108.06226Z"/><path d="M1064.46686,152.45654c2.86084-.26587,2.75342-3.29565,4.125-5.0393-2.37549-3.5354-8.10742-2.25415-6.208,2.32763C1062.69879,150.96045,1062.8736,152.60474,1064.46686,152.45654Z"/><path d="M493.18091,48.07739c-1.64136,2.30811-1.29614,4.70044.66382,6.83081C496.499,53.75391,495.74023,45.90527,493.18091,48.07739Z"/><path d="M935.27,99.5127a5.57107,5.57107,0,0,0,.63037,6.68994C938.24512,105.18945,937.90356,97.64673,935.27,99.5127Z"/><path d="M1093.983,119.79443c-2.47754,2.73169-3.72168,5.36914-2.32519,8.9795C1094.76715,126.30591,1095.21783,123.46729,1093.983,119.79443Z"/><path d="M1053.84039,145.43213c2.36573-.53613,2.32032-4.99-.20556-4.82349C1051.23151,141.04126,1051.11237,145.356,1053.84039,145.43213Z"/><path d="M1020.51373,112.18457c.02686-.56421,1.2168-4.00513-.938-3.92969C1016.56354,108.13062,1016.13971,112.88013,1020.51373,112.18457Z"/><path d="M155.73853,10.79248c1.87719-.66357,3.96191-1.81885,2.00781-3.78857-1.89551-1.91114-3.05347.79589-4.34912,1.89038l.00073.00049C151.866,11.55859,153.84082,12.80566,155.73853,10.79248Z"/></g></g></svg>