<svg xmlns="http://www.w3.org/2000/svg" viewBox="0 0 1690.03912 2405.70001"><defs><style>.b47344b4-c06c-4cc6-a054-577516852b39{fill:#d17537;}</style></defs><g id="e8f1240f-627c-477d-b64f-82d4cb56179d" data-name="Layer 2"><g id="bda16371-dcf3-4854-9c63-b83b95fe53de" data-name="Layer 1"><path class="b47344b4-c06c-4cc6-a054-577516852b39" d="M182.11841,2322.39838a9.13073,9.13073,0,0,1,.78393-1.44092,7.42015,7.42015,0,0,0-1.00341-.8999c-1.25684-1.11963-3.76172.24145-2.3042,1.95459C180.27148,2322.77216,181.76294,2323.19623,182.11841,2322.39838Z"/><path class="b47344b4-c06c-4cc6-a054-577516852b39" d="M187.981,2320.86591c.07324-.0962.13672-.19239.20508-.28882-2.09839-1.155-3.769-1.83081-5.2837.38037C184.30957,2322.40594,185.554,2324.05341,187.981,2320.86591Z"/><path class="b47344b4-c06c-4cc6-a054-577516852b39" d="M1684.56012,2343.41c-3.27.33-6.16016,2.51-9.67017,1.91-3.25-.56-5.59985-3.75-9.28-3.09-2.47,2.54,3.59009,3.84.88013,6.65-3.56006,4.11-14.91992,4.19-9.63013-3.03.89014.88,1.64014.55,2.07007-.41.11011-1.59-2.78-1.93-2.26.16-7.02.96-11.15991-.66-15.38989,5.35-4.68018-.33-.29-6.57-4.41016-7.48-3.07983-.61-2.35986,2.37006-3.22,3.89-1.35986,2.39-3.65991,3.88-5.37988,1.07-4-6.49-11.64014-7.51-16.58008-11.68-7.37988-6.21-15.87988-7.15-24.3999-10.05,3.11987-8.77,14.77-2.71,21.41992-5.22,8.26-1.94,17.79-1.86,22.98-10.97-4.18994-5.7-14.49-6.38-12.68994-16.78,11.31006,1.58,22.32007-2.62,33.71-1.18,3.82007.48,7.87012-1.06,11.83008-1.53,7.62988-.91,14.12988-5.99,23.26-1.72a13.445,13.445,0,0,0,2.239.79284v-14.06878c-24.10461.80554-46.86645,5.16833-70.019,2.65594,12.48.24,24.72-2.93,37.12988-2.78,11.103.44672,22.26-5.15564,32.88916-2.712V375.15479c-2.1853-.47022-4.29248-1.24292-4.269-5.05481-.34009-2.71-13.80005-.57-18.99-3.89-4.22-1.61987-2.58008-8.60986-7.14014-8.54-10.97,1.84009-20.53-11.3999-29.88989.28-9.81006,10.66-22.65991-30.92993-38.46-8.87988-8.41016-5.7-10.93018-15.90015-17.49-23.08008-5.57007-6-15.36011,7.93994-21.67017-3.65991a4.59966,4.59966,0,0,0-3.33984-1.8c-7.11011-.23-11.69019-4.32007-15.36011-9.79-2.47-5.09009-8.04-1.22-11.6499-3.34009-2.93994-2.5498-5.47-2.71-8.77-.54-7.59009,5.49024-9.28-4.02978-15.22-6.88989-4.94019-3.76-8.57007-.90991-10.89014,3.93994-2.59985,6.41016-8.73,6.83008-8.23-1.07983-.68994-4.18018-2.66992-5.81006-6.93994-3.98-4.83008,2.05981-8.04-.29-11.13989-3.98-4.36011-5.19019-14.67017-6.98-19.42017-2.38013-8.32007,8.63013-10.09985-4.05-17.57007-6.08008-12.36987,14.82007-20.49-3.08984-30.85986-10.41992-6.96-8.11011-22.72,8.77-25.78-5.07007-2.77-9.75-8.19995-3.67993-16.57007-17.07983-3.10986-3.3-3.27-9.25-9.65991-9.62012-1.28-.07007-1.47-2.73-1.84009-4.36011-.60986-2.68994,1.38013-5.78979-2.13989-8.06982-5.74-3.72-9.25-10.28-16.78-11.91016-8.97-1.93994-17.1499-1.06982-24.77,4.07007-3.67993,3.04-7.22,1.97-11.04-.11987-7.93994.26-14.27-2.9502-19.65991-8.63013-6.75-4.53-11.55005,4.46-21.29-6.53-2.56006-2.7998-5.55005.72022-8.04,1.93994-7.42993,4.41016-22.31006-12.48974-24.35986-19.28979-1.2002-3.28-3.72-3.56006-6.23-1.06006-4.47022,6.06006-29.07007-3.02-34.5-6.47-7.25-5.5-9.63013,8.52-18.1001-2.08008-9.03-11.17993-11.02,14.6001-31.18994-11.6001-1-1.67993-1.5-3.73-3.38013-4.71972-4.57983.71972-7.49,6.73974-12.61987,4.61987-3.37012-1.40015-.6001-5.08008-2.02-7.04-2.41016-3.32007.18994-8.55-3.76-10.76-3.41992-1.90991-4.84009-5.37988-8.16016-8.16992-5.73,4.62988-11.82983,8.87988-16,15.3999-2.97,4.65015-10.62988,6.40015-14.57983,2.71-4.88013-4.55981-11.30005-8.06982-12.74-15.61987-.66016-3.48-2.71-6.13013-6.42017-6.88013-10.67993-2.15991-12.21-3.54-15.33984,7.53-1.15015,4.07007-2.52,5.74-6.79,4.19019-5.62012-2.06006-11.42993-3.6001-16.67993-6.63013-8.24-4.16992-3.65009-7.21-3.58014-14.36987.27-4.12012-1.96-6.18018-5.35-3.91016-4.34,2.8999-6.52991.46-9.34-1.95-5.2-4.45-10.72-7.03-16.96-1.77-2.3,1.92993-3.72009,1.31006-5.70007-.86011-7.6-9.34985-13.09-2.58984-20.89-6.5498-5.62-4-8.85,4.0498-14.75-.84009-5.62-3.21-5.67993-3.11011-8.62,2.41992-3.70008,6.95-4.39,7.1001-8.33.29C900.89,103.29,895.91992,133.77,887.21,93c-2.13989-8-5.85-10.54-13.23-7.96-3.41992,1.2-6.22,5.46-9.85-.28-2.97009-2.32007-5.74,5.26-9.74,4.78-2.04-6.52-17.75-17.01-18.64-4.33008-.23,2.02-.4,4.02.73,5.82007,2.27,3.59985,1.6001,7.74,2.18994,11.63989.32007,2.16016.93006,5.25-2.35986,5.54-2.96008.26-3.73-2.46-3.70007-4.88989.05993-5.96021-6.68006-10.25-4-16.90015.54992-1.34985-1.08-2.07983-2.34-2.67993-6.63-2.81006-14.12,1.83008-16.92,7.73-1.41,1.58008-3.17,2.58008-5.16.8-1.71-1.53-4.35-3.5-2.77-5.6499,2.02-2.74024,5-4.99024,2.95-8.59009-2.09-3.7-7.56-1.86011-10.1-5.28-4.37,3.32007-9.81-1.2-14.49,2.27-3.25,2.40991-8.57,2.58984-11.41.51-6.25-4.58008-11.74.56006-17.45-.18994-3.05-.40015-2.11,1.78-2.27,2.95-.33,2.46,1.15,4,2.79,5.87988,7.5,8.77-2.04,8.76-2.53,16.33008-.19,2.47,1.43006,6.31006-1.84,6.91992-8.78,1.71-15.66-9.81982-12.14-17.77978,1.21-4.71021,7.67-14.24024,4.38-18.14014-3.35,5-6.35,9.82007-8.19,15.32007-4.25,14.1499-11.85-2.88013-17.44,8C712.15,97.25,710.99,100.73,707,98.74c-13.21-8.23,10.7-22.63013-1.6-27.24a3.42549,3.42549,0,0,1-2.29-2.99c-1.72-10.42993-11.66-.7-10.71,5.3,1.9,2.75,5.34,8.43994.11,9.84985-9.76,4.38013-10.26-3.74-12.06-11.43994-4.35-15.36011-13.38-2.3999-20.76-7.01-7.83-8.33984-16.52,1.99-24.97-1.83984-8.98-5.40015-6.71,2.5-13.62994-.64014-3.65-.6001-7.6-6.40991-11.07.66992-.67,1.38013-2.93-.5-4.47-.88989-8.4-2.13989-16.75-4.1001-25.61-2.27-9.56,1.23-3.57,5.97-5.3,12.57007-4.11,1.8999-6-1.53-7.62-3.41016-3.97-4.58984-10.07-4.50976-14.64-7.66992-6.16-2.93994-8.29,10.33008-15.21,1.93994-3.07-3.56982-9.04-2.49-10.86-7.37988-4.18,1.8999-1.28,9.18994-7,8.66992-3.97-.35986-6.33-4.56006-10.18-7-3.25,8.54,11.99,14.11011,4.74,21.24-4.1,3.40991-8.23,3.05-11.9-1.78-2.93-5.84985-10.25-3.98-13.48-9.25-2.36-3.34985-4.21-6.71-9.1-2.75-5.33,1.83008-4.27-7.7998-3.9-11.01.59-4.82983-1.58-6.76-6.06-8.5-9.14-4.07983-10.13,14.27-17.32,9.43018-2.44-4.14014,4.72-6.02,2.78-11.3501-5.68.88013-12.46,7.40015-16.83-2.98-9.27,15.63013-17.69-1.92993-26.67,7.3999-3.49,4.14014-6.97,3.51-11.37.82007-4.53-2.77-10.88-2.85986-11.88-9.7-6.48,3-1.07,9.11987-1.27,13.88989.87,9.33008-8.03,8.89014-14.12,5.38013-2.9-1.6001-7.03.01-9.13-3.17993-2.29-3.78,2.93-9.98-.39-13.27-10.53-3.2002,2.37-15.48-6.42-22.77-3.58.32983-6.92,9.48-9.21,8.0498-1.64-2.98,4.08-8.98974-.8-10.12988-3.19-.71-5.52,3.06006-6,6.62988-.22,1.6001-.48,4.17017.38,4.79,8.97,6.53-.74,15.18018,4.76,21.84009-16.01,2.95-16.04,2.95-18.98-10.75-1.25-5.8-3.49-11.48-1.97-17.63989.36-1.47022.46-3.53-1.8-3.93018-8.73,2.11011-3.62,17.39014-9.89,22.23-2.99-7.49-2.99-7.49-9.51-10.62988C300.57,28.48,298.98,29.47,299.23,32.97c3.01,17.96,18.57,7.22,15.45,34.86011.38,3.06006-3.68,4.52978-5.27,2.47-.45-8.3-10.17-9.81006-12.45-17.05-2.88-6.15991-.77-13.8999-2.44-20.58008-1.69-10.44995-13.16.41016-18.5,2.14014-8.54,6-15.31-1.59009-6.89-5.18018,4.13-.77,8.86-.23974,12.24-3.36987,9.36-10.28-2.85-10.86011-8.29-16.3501-6.76-7.78979-9.62,1.1001-10.93,7.75-8.06-1.26977-8.65-9.17993-12.58-13.76-3.16.02-3.56,2.86011-5.12,4.40015-8.85,8.87988-9.36-1.39014-15.64-5.95A2.12154,2.12154,0,0,1,226.94.01V0h-3.99c-2.36,3.66992-2.16,9.24-9.1,9.3501-2.2.02978.03,5.17993-.47,8.66992-9.84-6.1499-10.43.75-19.38,1.38989-2.68-3.03.07-10.41992-6.24-9.71-4.16.46-2.86,5.99-3.26,9.76-8.4,1.49-11.54-17.03-18.29-6.54-1.77,3.41016-3.84,7.01-3.42,11.16016C166.23,26.76,166.94,20.72,170.86,21.7c1.03,10.39014-7.17,21.25-15.99,10.01-6.34,5.71-4.21,13.55005-5.82,20.6499-.72,2.49024-3.22,3.4502-5.64,3.09009-5.12994.72.45-23.35986,2.56-26.05981,2.63-4.82007,3.53-10.57007,5.21-15.92017-2.33-2.09009-3.22,1.8501-5.6.86011-1.12-3.02-2.36005-6.36011-3.57-9.64014-3.95.52-3.66,3.18994-3.11,5.29,1.55,6-.1,11.96.22,17.91992.85,6.58008-9.81,8.57007-10.02,1.26-.3-5.26977,1.92-10.45.89-16.37988-4.51.05005-8.34,6.38989-13.05,1.21-7.05.04-13.56,15.96-23.67,11.46-1.31-.52-3.18-.96-3.62.21-2.53,6.79-10.43,4.72-14.44,9.01C67.61,39.25,65.57,30.35986,58.73,45.7c-4.37,9.09009-11.76,14.24-21.81,13.77-5.58-.26-9.33,4.62012-14.82,3.90015-.4-.05-1.25995,3.45-1.91,5.31982-3.2.06006-4.33-2.79-6.33-4.33008C8.72,60.40991,4.34,58.91992,0,59.95V2243.64c15.75,1.32,32.26.11,45.09,9.25-.75,1.81-2.16,1.75-3.46,1.64-13.86-1.17-27.73-2.15-41.63-2.68v36.48c17.39,3.11,36.35,5.8,43.89.54a3.168,3.168,0,0,1,2.84.25c5.94,4.42,13.94,1.29,19.91,5.57a4.34842,4.34842,0,0,0,4.79.24c9.02-6.22,18.6-2,27.03.13,12.65,3.19,25.87,2.78,38.17,7.21,3.35,1.06,7.61-2.38,10.45-.05,6.2,8.32,16.01,4.64,23.84,7.39,1.75.62,4.67005.87,5.76-.12,5.85-5.32,8.09,1.19,11.09,3.45,2.29,1.73,2.51,4.68.42,7.64.44.24.89.5,1.38.76,6.43,3.52,14.5,1.51,21.33,5.84-4.38,16.55-13.16,8.39-15.63,19.71-2.81,10.77-14.41,1.16-10.15-6.12,2.01-2.56,5.15-4.35,4.43-8.31-4.1-1.88-8.48.69-12.58-.8-1.54-7.3-4.85,1.42-8.04-.92-5.18-4.54-11.54-2.35-16.62-1.82-7.21,1.05-14.58-.84-21.48,1.34-1.92005,4.18,6.53,3.22,4.23,7.66-1.44,2.91-4.51,1.51-6.92.59-2.76-1.05-5.58-5.62-8.33-1.03-6.25,10.14,6.29,11.03,2.57,15.6-1.49,1.61-3,.36-4.2-.84-4.32-4.41-13.4,2.25-8.6,7.3,3.84,5.98-6.3,3.06-8.11005,6.51-1.82,2.7.55,6.85,4.32,6.63a41.18465,41.18465,0,0,1,18.81,3.01c2.78,1.15,4.54.99,4.18005,4.59-.16,3.26,6.71.03,3.56995-2.12006-1.62-1.23-2.52-3.01-.24-3.59,8.33-2.12,4.03-10.43,7.61-14.84,1.22-2.1-6.06-5.95-6.12994-9.68-.71-3.09.12-6.3,2.71-7.98,3.89-1.91,6.98,5.03,9.97,6.89,2.58,2.22,3.57,4.18,1.16,7.52-3.88,5.35-3.01,12.03-4.42,18.63,8.67,4.25,16.33-9.76,21.6-.18,3.65,4.54,8.72-3.67,11.79-4.9,2.29.59,2.53,2,3.12,3.14,4.29,8.29,4.32,8.33,12.12,2.5,5.28-3.49,9.78-.31,16.29-5.97,4.13,9.37,6.32,9.98,13.17,3.37,1.99005-1.92,3.26-2.99,5.61-.82a3.95692,3.95692,0,0,0,5.48.1c7.04-5.81,15.26-1.25,23.18-2.2,2.82-.23,5.16-1.13,5.13-4.75-.07-7.92,5.46-13.29,8.99-19.61,2.91-5.2,6.83-6.47,12.39-5.83,8.29.97,12.89,4.96,13.84,13.44.18,1.58-.8,3.15,1.38,3.97,1.64.3,3.91,3.02,1.64,4.05-2.17.33-3.16-1.19-3.33-2.82-.53-5.04-5.66-5.53-8.27-8.5-7.61-2.57-7.59,14.51-9.41,19.23-.82,3.06,2.14,5.75,5.18,6.29,4.4.26,3.62006-5.8,4.81-9.13,4.41,2.99,3.09,10.47,9.54,10.66a2.44574,2.44574,0,0,0,1.02-3.31c-.01-.01-.01-.03-.02-.05-3.21-7.26,6.85-8.34,8.36-1.64,3.27,8.13,6,9.52,13.37,4.68,3.79-2.49,7.01.79,10.29-.77,1.72-10.18-11.67-7.81-12.54-15.77,6.07-1.72,12.21,4.14,17.91-.52.7.99,1.36,1.5,1.38,2.02.31,12.24,2.97,15.36,14.78,16.95,1.25.17,3.1.19,3.81-.55,4.64-4.85,13.43-4.46,15.61-12.4.58-2.07,2.33-2.17,4.01-1.42,3.23,1.43,5.62-1.38,8.57-1.6,2.86-.21,4.08-2.27,2.91-5.02-1.1-2.88-4.82-2.84-6.66-1.06-1.06,3.54-3.5,3.45-6.23,2.33-5.15-2.29-.19-8.53,3.71-9.02,7.69-2.03,14.46,4.01,21.86,5.51,1.72,3.43-2.98,3.97-2.87,6.98.48,2.86,5.31.29,5.61,3.8-5.41,4.13-12.71-9.1-11.14,10.74,3.55-1.77,8.11,3.67,10.91-2.73.44-1.01,1.97-.94,2.64-.36,4.97,4.4,11.49,2.19,17.06,4.11,3.56,1.22,7.1.39,10.63-1.17,25.24-13.35,32.01,8.38,41.85-2.56,7.19-8.61,16.48-5.89,23.81-3.24,9.05,3.28,17.96,3.46,27.01,3.62,5.13.08,10.33,3.19,15.43006.22,1.88995-3.93-6.03-4.47-2.2-8.22,2.09-1.93,5.56-.14,7.06,1.54,3.03,6.24,5.64,5.56,9.97.65,4.3-4.07,22.73-1.19,27.62,4.95,7.79,8.12994,11.96,4.74,19.73-.5,2.01-.47,4.21-.12006,4.99,2.15.6,4.53-6.2,4.06-9.15,5.18,2.17,6.66,13.2.61,18.08.52,3.92-.45,8.06.89,12.1-1.36,11.14-1.52,22.8,5.59,34.56,2.75,4.84-.83,9.12-1.5,12.49,4.6a13.65943,13.65943,0,0,0,13.42,6.74c6.59-.6,13.13,1.96,20.09-.33,4.95-1.62006,10.84-1.94,15.47,2.71a6.49467,6.49467,0,0,0,6.64,1.28c14.88-4.6,29.78,1.61,44.91-2.24,6.32-.44,12.68-.66,18.62,2.25,6,2.84,14.54-5.11,25.9-3.49,1.63-.01,4.51.12,4.69007.78,2.31994,8.29,9.90991,3.56,14.49,6.08,10.33,6.85,18.36987-4.85,21.83984,1.33,3.51,4.86,13.41016-1.39,9.92017-6.93-3.36011-5.05,2.28992-9.75,4.27991-5.78.62,5.8,6.31994,6.2,8.92,5.6,4.35-1.01,6.03,5.49,9.09,2.74a16.69315,16.69315,0,0,1,9.49-4.16c1.85-.29,3.86-2.53,5.51-.98,3.59,3.36,6.94006,5.6,11.48,1.71,2.27-.03,3.30993,3.06.91,3.83-3.62,1.6-3.78,4.21-2.4,7.38h6c2.18-2.58,1.06994-6.56,4.29-9.52,3.95,2.28,8.37,5.76,12.89.54-.31006-4.78-11.33008-5.5-6.26-10.87994,2.04-1.92,2.63989-6,6.5-5.34,3.55.6,1.99,4.52,3.56995,6.53,4.54,9.43994-5.04993,10.7,11.24011,10.71,11.78991-2.43,11.16992,16.19,19.32983-4.04,2.11011,3.35,3.82007,6.21,8.11011,5.24,3.06006-.69,6.34.7,9.61-1.22,5.4599-3.2,11.27-6.01,17.79-2.45,2.55005,1.39,3.30005-1.08,4.82007-2.14,5.49-3.83,5.93994-3.62,9.06006,3.15,1.28,2.77,11.58984,6.05,14.82983,4.4,19.25-11.57,23.55005,1.72,32.47-11.17,12.03,12.43,13.03-.61,20.49,9.71,9.76,9.22,5.26-9.37,14.30005-3.78a5.48965,5.48965,0,0,0,5.69995-.77c5.97022-3.75,9.08008,8.97,19.84009-2.39,1.52-1.79.13013-3.24-1.65991-1.97-9.02.97-13.67017-2.05-16.52-10.7-7.48-6.52,9.21-9.41.91992-17.55,9.92993.2,18.84009-1.54,27.68994,1.29,2.42017.77,5.28.27,7.94019.21,29.75-1.68,60.12988.65,89.55981-3.34,2.66016-1.06,5.58008-.87994,9.31006,1.48a71.98274,71.98274,0,0,1-28.81006,4.5c-7.06982-.26-13.81982.99-20.73,1.34-2.93994.14-5.05981.45-5.02,4.35.03,3.32-2.76,4.45-5.61987,4-10.01-.78-.73-9.47-10.15991-8.71-17.96021-.13-35.91016-.22-53.87012-.07-5.87988.05-8.97,5.68-7.3501,12.49a6.56809,6.56809,0,0,1,5.75,2.1c1.31006-.02,2.63013-.05,3.9502-.07,8.5-9.84,15.17993,16.38,32.82983,10.3,5.89014,4.76,10.62012,5.29,13.83008-3.06.54-1.42,3.02.08,4.51.66,3.6001,1.22,2.23,5.57,6.11987,6.73,9.76-10.33,10.82007,3.65,17.46021-1.18,2.93994-2.9,6.43994-2.98,10.09985-1.51,5.84009-6.77,13.03-.16,19.3501-1.95,21.29-6.21,23.81006,7.08,31.87988,4.58,4.92017-1.08,10.18018-4.02,13.47,1.82,3.01-1.31,2.41016-3.28,2.97022-4.73,5.62988-11.43,15.50976,7.32,24.31982-.49,5.42017,4.67,8,.43,12.07007-2.64,1.76-1.31994,8.65991-1.87994,11.11011,3.44,1.7998-.08,3.60986-.16,5.41992-.23,2.29-2.55,4.33984-6.35,2.41992-9.61-1.72-.45-3.33008-1.03-3.76-3.06-.3-.14-.59985-.26-.88989-.37-.30005-1.65-1.03-3.35.78-4.47,4.36987,2.56,8.78979.4,13.03-.24,3.98-.61,4.74-4.61,2.09985-10.36,14.08008-.28,27.42993,2.44,40.82007,4.77,7.58984,4.46,12.6499-7.23,19.93994-3.47,5.57007,2.19,11.52.86,17.32007,2.81,4.15991,1.41,10.05005,2.9,14.90991-1.27-11.54,15.45-14.17993,5.88-29.6499,14.05-3.05005-3.38,3.94995-6.08-.23-9.06-3.7002-2.63-6.8-.74-9.9502,1.12994-.05981,1.83.84009,4.42-1,5.21-2.99,1.11-3.28979-4.09-5.37988-5.53-1.25.06-2.5.13-3.75.2-3.26,5.73-14.44995-4.34-21.56006,4.56-2.84985,3.13-4.56006.24-6.60986-1.11-2.43018-1.77-4.64014,1.1-3.26,3.34,2.82983,4.66,7.47,7.51,11.55005,10.87,1.48,1.21,3.12988.02,4.51977-.93,13.72022-9.48,16.74,6.93,30.16016-6.14,3.98,2.51,5.60986,8.9,12.34985,5.9,3.91016-1.74,9.1001,2.66,13-1.9a2.53292,2.53292,0,0,1,3.46021-.76c8.44995,5.22,15.05981-1.53,22.01977-4.02,5.24024-1.87,8.52-2.14,12.03,2.91,6.03,6.94,9.36011-8.34,3.26-10.92-2.17993-1.42-4.35986-3.09-5.23-5.81-6.34985-.14-9.42993,14.42-15.26,4.96-1.51-2.72-4.26-.9-6.53-2.21,3.90015-9.07,14.6001-4.44,21.93018-4.44,5.09985-2.66,9.87988-5.16,15.2998.14,3.65015,3.73,11.56006-7.85,15.06006-2.32,4.41016,4.74,4.08008,17.2-4.85986,11.7-3.87012-2.67-7.96-2.88-12.81006-1.29a21.70268,21.70268,0,0,1-.6499,11.55c6.98-1.16,13.48-1.11,18.96-3.45,6.18994-2.64,12.55981,2.73,18.71-2.02-1.37012-4.03-5.5-5.14-8.33008-7.59-10.37988-7.35,19.19995-15.95,24.15015-12.21,3.91992,1.45,8.24,1.73,11.84985,4.01a3.274,3.274,0,0,0-.01.7,2.24773,2.24773,0,0,0,.09009-.64,1.42558,1.42558,0,0,1-.08008-.22c10.90015,5.9,11.04-13.75,15.06006-5a1.96923,1.96923,0,0,0,2.52,1.21,2.00107,2.00107,0,0,0,.77-.48c5.36987-6.02,12.29-.98,18.43994-2.44,3.67993-.87,8.54,2.2,12.92993-.31,9.19995,5.31,16.04-5.33,25.15015-3.12,4.85986,1.71,9.18994,7.08,15.2998,3.02.27-.18,1.74024.83,2.17017,1.57,5.55005,8.4,8.55005-8.05,16.52-2.56,6.27,1.03,14.80981-1.07,21.52,1.5,3.61987,1.08,6.96,2.18,10-1.32,1.38806-1.45673,3.44824-1.1792,5.479-.69666v-13.57367A9.78965,9.78965,0,0,0,1684.56012,2343.41ZM29.14,2286.12a1.34545,1.34545,0,1,1,.05-2.66,1.57918,1.57918,0,0,1,1.5,1.09A1.55567,1.55567,0,0,1,29.14,2286.12ZM111.07,49.91992c3.63-5.82983,3.05-12.62988,4.32-18.99,9.44,5.98,6.25,13.19019,2.68,20.42993-1.77,2.58008-3.38,8.33008-7.33,6.39014C107.29,55.92993,109.56,52.3501,111.07,49.91992ZM85.76,2262.62c3.71-3.25,7.01-1.35,9.88-2.64a16.46024,16.46024,0,0,0,.1,2.72C95.93,2264.57,90.31,2263.83,85.76,2262.62Zm46.99-13.86c-11.81-4.02-24.1-3.81-35.95-6.75-3.5-.1-13.97-5.76-15.49-1.7.07,3.89,4.95,5.13,8.19,5.6,6.57.81,12.64,3.8,19.45,4.11,4.45.21,6.83,4.63,10.7,8.01-5.9,3.35-11.08.42-15.99.99-1.87994.21-5.61-3.17-7.24-1.5-7.7-9.62-23.19,2.54-31.06-7.45,1.47-3.53,5.95-.75,7.35-3.8a2.23712,2.23712,0,0,0-1.6-2.23c-13.72-4.84-28.73-6.54-41.74-13.07.98-4.9,4.08-5.9,8.61-5.68,16.19.78,32.4.55,47.75,7.46,13.77,6.2,29.17,5.27,43.63,8.63,10.5,3.28,21.77,2.2,30.91,9.19C150.22,2254.31,140.93,2251.55,132.75,2248.76Zm-11.44,113.23c7.2-.52,7.79-.03,11.18,9.1C125.53,2370.6,126.46,2363.1,121.31,2361.99Zm41.51-8.53c0,2.33-3.78,2.64-3.64-.18C159.33,2351.56,163.13,2351.16,162.82,2353.46Zm-.04-10.36c.24-3.15,5.99-2.47,6.17.61C169.2,2346.86,162.56,2345.69,162.78,2343.1Zm13.47-11.01c-.02-.19-.03-.3-.04-.38.06.2.25.54.75.04C177.6,2332.46,176.3,2333.16,176.25,2332.09Zm15.55,35.98c-1.21-.62-.98-2.12.25-2.85C193.98,2365.86,193.93,2368.26,191.8,2368.07ZM228.92,39.12012C228.35,31.51,221.57,26.28,220.82,17.98,232.52,24.42993,235.06,30.96,228.92,39.12012Zm-12.7,5.5498c3.6.89014,2.88,4.56006,3.57,7.08008-.18,1.56006-.89,3.27-2.07,3.12988-3.98-.48-3.66-3.95-3.85-6.77C213.76,46.54,214.37,44.21,216.22,44.66992ZM203.71,27.80005c3.13,3.37988,2.4,12.66992-2.79,11.57983C196.42,37.25,199.71,29.57007,203.71,27.80005ZM202.83,59.74c-3.53-.11011-5.48-1.97-5.61005-5.48C198.54,42.75,219.75,59.01,202.83,59.74Zm22.39,2302.8c-.2-3.22,2.42-4.63,4.94-5.15,2.93006-.61,3.5,2.2,4.47,4.31C234.77,2367.39,224.98,2368.7,225.22,2362.54Zm-.17-25.82v-.01c-4.9-.8.33-9.06-3.93-9.96-4.82-1.01-7.82-6.21-13.38-5.13-7.13.41-15.71-1.13-13.69-11.45,11.68,9.11,35.21-3.24,40.83,12.4-2.49.57-4.36,1-6.35,1.46,3.31,4.16,6.48,8.12994,10.12,12.7C233.78,2339.01,229.36,2336.8,225.05,2336.72ZM250.47,46.98c.91-9.87988,11.4-5.52,11.78,2.6001C260.31,55.2,249.75,53.28,250.47,46.98Zm-2.78,2269.91c11.79-4.01,20.99-.68,30.29.96C268.42,2322.09,259.27,2318.68,247.69,2316.89ZM325.99,61.26c-2.61-.32007-1.97-4.56006.69-4.3C329.32,57.53,328.63,61.53,325.99,61.26Zm34.2,2294.66c-1.04-.36-1.09-1.38-.94-2.37.12-2.06,2.79-.26,3.3-.05C362,2355.83,361.17,2356.27,360.19,2355.92Zm44.36-6.55c-2.66-.01-4.88-.75-5.13-3.55-.21-2.19,1.62-2.61,3.33-2.16,2.31.61,5.76.17,5.62,3.84C408.29,2349.49,405.95,2349.18,404.55,2349.37Zm22.39-28.94a2.31068,2.31068,0,0,1,3.83,2.03C429.89,2324.92,425.84,2322.56,426.94,2320.43ZM425.13,56.6499c.6,3.13013-3.81,5.59009-4.95,2.06006C418.88,55.25,424.48,52.08008,425.13,56.6499ZM429.12,2338.5c-.38-2.59-3.07-2.3-4.2-3.72-3.06-3.86-6-5.16-9.41-.48-1.8,2.88-5.56-.55-4.33-3.06,1.24-3.61,7.32-6.78,10.61-5.09,4.62,2.39,8.32,6.33,13.23,8.36.45.19.6,1.09.88995,1.66C435.4,2338.81,429.98,2342.93,429.12,2338.5Zm10.67-6.08c-.14-1.26,1.31-1.36,2-.63C443.06,2333.51,440.66,2333.32,439.79,2332.42Zm12.73,24.01c-1.94-.74-5.5.32-4.26-3.25,1.22-3.51,7.15-2.6,7.55-2,5.76,9.55,7.79.48,10.48,5.14C464.65,2365.45,457.03,2359.23,452.52,2356.43Zm54.17,11.85c7.18-7.51,16.16-8.74,18.08-1.19C524.76,2371.45,510.66,2369.87,506.69,2368.28ZM650,2373.01c-2.26-.16-4.59-.84-4.76-5.13,4.45,2,19.18-2,19.26,3.02C663.47,2375.08,653.54,2372.52,650,2373.01ZM666.7,101.99c-6.73,2-5.24-11.86987-13.63-7.57007-1.54.61011-3.19.86011-6.48-.73,7.15-5.41992,19.29-13.58008,20.31.46C666.34,96.84009,670.54,100.35986,666.7,101.99Zm26.95,2281.2c-.93005,1.8-2.71,1.94-2.53-.41a3.13439,3.13439,0,0,1,2.03-.96A1.37716,1.37716,0,0,1,693.65,2383.19Zm2.08-2264.37994c-10.66,3.2-7.57-37.32007.03-27.25C695.05,100.62988,702.27,110.06006,695.73,118.81006Zm50.56,2264.72c-.56-.19-1.13-.4-1.7-.61C746.06,2378.28,750.57,2381.45,746.29,2383.53Zm25.36,2.36c-2.19-.11-4.19-.11-6.15-.34-4.48-.05-1.64-8.02,1.54-5.03,3.1,2.89,5.75,4.19,8.98.18C780.3,2378.42,782.73,2386.94,771.65,2385.89ZM799,105.78a18.59759,18.59759,0,0,0,8.9-8.63013C815.63,116.62012,788.71,115.47,799,105.78Zm33.82007,2275.67c.68994,3.66,4.7,1.5,5.18994,4.38-1.74,1.84-5.09009.91-5.16992.25-1.36011-10.46-14.78-5.11-20.49011-12.78,3.6-6.02,9.2301,4.86,23.59-1.35,5.71008-1.93,18.48-.77,19.24,6.41C854.77,2381.24,837.42993,2379.28,832.82007,2381.45Zm26.88989,6.54c-1.76.82-2.33.62-2.58-.18-1.37-2.47,3.86-6.82,4.75-3.75A4.86364,4.86364,0,0,1,859.71,2387.99Zm35.48-2.68c-5.74.85-5.69995-6.63-.53-5.86C899.65,2379.27,899.45,2385.2,895.18994,2385.31Zm26.23-.74c-.08984-2.61,6.71008-5.28,8.42017-3.62C933.76,2385.49,923.77,2389.27,921.41992,2384.57Zm30.74-2248.49994c2.27-.05,2.75,4.17993-.09985,3.8999a1.95061,1.95061,0,0,1,.09985-3.8999ZM960.85,2385.8c-3.21.54-6.53992,1.59-10.15-2.38a89.98156,89.98156,0,0,1,8.83008-3.56C963.25,2378.55,965.2,2385.39,960.85,2385.8Zm23.55,5.96c-1.71008.35-1.86-1.3-1.77-2.55-.56994-3.09,3.62-4.76,4.28992-1.11C986.90991,2389.89,986.06006,2391.42,984.4,2391.76Zm2.0199-46.94c-10.80993-4.04-22.86987-1.79-32.83984-8.03,13.2-.59,25.30993,1.37,37.24,4.48C990.48,2345,987.79,2345.27,986.41992,2344.82Zm45.40021,36.05c-5.54-1.38-4.16016-8.59,1.18994-8.11C1036.33014,2373.63,1035.17,2380.56,1031.82013,2380.87Zm3.97-21.21A7.55894,7.55894,0,0,0,1032.68,2357.09a4.75556,4.75556,0,0,0,3.28-2.4c.75-1.15,3.21-.49,4.07007,1.27C1041.75006,2358.69,1037.32013,2361.36,1035.7901,2359.66Zm9.41992,24.81a11.50845,11.50845,0,0,1,.72-1.96c2.51.08,3.8-4.26,6.88013-1.88C1053.07013,2385.1,1047.87994,2383.1,1045.21,2384.47Zm32.46-9.37c-2.09985-2.08-6.01,1.46-6.84985-1.74-.21021-1.07.28979-2.48,1.12988-2.4,6.09009.61,8.64014-2.96,10.63013-7.95,3.25-5.04,11.63989-1.84,16.80981-2.71C1089.59991,2363.4,1089.17,2381.71,1077.67,2375.1Zm136.71-2.97c-.6499,2.18-3.90991,1.02-2.91992-1.01C1212.24005,2369.91,1214.86993,2370.21,1214.37994,2372.13Zm50.90015,8.91c2.1499-3.56,4.16992-5.59,9.06982-3.19A15.15239,15.15239,0,0,1,1265.28009,2381.04Zm27.54-1.56c-.80005,1.35-2.19019,3.31-3.76,1.45-1.55005-1.81-4.63013-1.31-5.34009-4.07C1285.7901,2374.08,1295.42,2375.06,1292.82013,2379.48Zm5.43994-15.41c-2.11011-.02-2.57007-2.27.03-2.14C1300.52008,2361.64,1300.73,2363.83,1298.26007,2364.07Zm8.22,14c-.3,2.84-4.43994,1-3.88013-1.27C1303.00006,2373.95,1307.18,2375.3,1306.48,2378.07Zm14.83008-.32c2.34985,1.87,4.10986,4.28,6.32983,5.4C1325.19,2387,1319.27008,2382.73,1321.31012,2377.75Zm234.2998-32.6c1.97022-4.13,1.97022-4.13,6.87012-5.17C1561.22,2343.37,1558.58014,2344.39,1555.60992,2345.15Zm12.56006-2.21c5.11011-6.85,11.17993-1.47,16.02-1.7C1579.16,2341.77,1574.11993,2342.31,1568.17,2342.94Z"/><path class="b47344b4-c06c-4cc6-a054-577516852b39" d="M1573.97614,2375.39032c-5.70264,2.2146-29.09815-.023-29.80372-7.76758-.44238,1.45508-2.47656,1.45069-2.98535,2.73047-.91552,2.30249.90479,5.55347-2.29052,7.063-2.8252,1.335-4.98438-.34912-7.31934-1.70239-5.41553-2.46241-4.06885,6.345-4.58838,9.38427-.126,2.00147,1.18994,3.79737,2.80127,3.0813,8.15967-3.62719,17.37305-.499,25.38135-4.10278,15.96435-8.41211,18.751,7.34546,24.229,1.54419C1584.93219,2381.32074,1581.14313,2372.2309,1573.97614,2375.39032Z"/><path class="b47344b4-c06c-4cc6-a054-577516852b39" d="M1126.68561,133.97339c.73291,1.87964,1.79053,4.46265,3.92969,3.53393,3.30371-1.43457,7.8413.92139,9.477-1.27514,3.32421-5.65113,8.47656,2.67724,9.73144,6.07641,2.44971-2.46582,3.01758-5.98266,6.07959-7.76342,2.47266-1.438,3.45264-3.801,1.40674-6.71509-2.39258-3.4082-4.38379-1.49268-6.57666.1018-3.0918,2.24781-5.56543,2.33033-6.24609-2.187-.30518-2.02539,1.62988-4.92456-2.04541-5.52148-5.9502-1.1272-5.97852,5.34009-8.48194,9.13476-7.00244-9.60131-8.85791-10.23461-16.53271-6.21972-1.84131.96313-3.71778,1.91992-3.42481,4.25171C1115.53082,133.70117,1124.70465,126.8208,1126.68561,133.97339Z"/><path class="b47344b4-c06c-4cc6-a054-577516852b39" d="M1603.22809,2372.353c-.76221-.81348-3.53369-.71045-4.71778.02465-3.02783,1.88013-6.44482.77979-9.85058,1.78345-.73731,3.23023,1.376,6.29419.22168,9.67627-.78662,2.30567,1.51514,3.36231,3.80224,1.94946,7.28418-9.03466,19.72022,5.312,31.32032-3.38037,1.52051-1.03662,4.84228.56958,7.52881.98609-.56788-1.20093-1.33838-2.08325-1.34522-2.97266C1629.40143,2367.46527,1610.13239,2382.08539,1603.22809,2372.353Z"/><path class="b47344b4-c06c-4cc6-a054-577516852b39" d="M946.09619,110.65967c8.991.48584,7.114-6.335,11.20679-5.88355,9.30688,3.52076,2.9519-13.32934,13.614-8.25854,7.52832-.03736-.17773-11.13477-4.98169-6.55469-4.0144,3.2561-9.79419,1.0376-13.42383,5.18066-1.1831,1.35059-2.92089-.00854-4.13427-1.3728-1.37476-1.54565-.61621-4.58618-5.32886-5.95727C946.4231,95.95312,940.979,103.48584,946.09619,110.65967Z"/><path class="b47344b4-c06c-4cc6-a054-577516852b39" d="M1045.2403,114.81909c2.12988,3.21851-1.96875,6.85571,1.41894,9.38745,10.57959-2.7644,11.24268-10.87231,11.04346-20.57715-4.67237.438-8.80957,7.7439-12.70947.28589-4.84034,2.377-7.63819,11.90723-5.3335,17.09009C1044.30573,121.53125,1041.23346,114.81689,1045.2403,114.81909Z"/><path class="b47344b4-c06c-4cc6-a054-577516852b39" d="M976.49976,111.4978c4.05835-3.19067,5.12426,2.62378,9.64965,3.49976,3.92579-1.97876,4.75293-12.76929,6.00171-17.11035-2.3518-10.30323-15.69726,6.32715-17.425,10.72851C974.31763,109.5061,974.36914,113.05371,976.49976,111.4978Z"/><path class="b47344b4-c06c-4cc6-a054-577516852b39" d="M1078.4527,127.66553c4.02734-.39991,5.34179-4.313,7.80908-6.76221,2.25146-2.23486,3.56885-5.293.53613-7.65967-2.74218-2.14013-5.31006-1.46679-7.00586,2.13135-.76074,1.61328-3.05468,2.44507-4.06884,4.01C1073.92633,122.15649,1075.70905,127.36328,1078.4527,127.66553Z"/><path class="b47344b4-c06c-4cc6-a054-577516852b39" d="M1033.08356,103.8728c-.38184,5.91455-4.23242,9.98658-5.09668,16.59033C1038.02838,115.74731,1039.128,112.03784,1033.08356,103.8728Z"/><path class="b47344b4-c06c-4cc6-a054-577516852b39" d="M1168.773,142.33643c3.63477-2.35987,7.8042-.96778,9.05273-5.34131-.60546-.67383-1.28662-2.02417-1.86914-1.98291-3.74707.26538-4.35449-7.61475-8.69091-3.88794C1163.4444,134.40918,1169.1568,137.43628,1168.773,142.33643Z"/><path class="b47344b4-c06c-4cc6-a054-577516852b39" d="M1638.51422,2382.67035c7.0752,4.166,8.59717-4.86816,13.812-3.61914C1646.92828,2375.14716,1646.92828,2375.14716,1638.51422,2382.67035Z"/><path class="b47344b4-c06c-4cc6-a054-577516852b39" d="M905.24487,84.90381c-3.199,6.1914-3.199,6.1914,1.70972,15.19433C910.11255,94.85815,907.77051,90.59277,905.24487,84.90381Z"/><path class="b47344b4-c06c-4cc6-a054-577516852b39" d="M311.06592,17.77588c-.60474-4.04981-6.55884-10.43115-7.07788-2.42334C302.207,20.33057,310.06714,24.0498,311.06592,17.77588Z"/><path class="b47344b4-c06c-4cc6-a054-577516852b39" d="M922.66846,108.06226c5.70581-6.76123-3.53589-18.0354-5.61573-7.89478C917.11938,103.61572,920.65576,104.5144,922.66846,108.06226Z"/><path class="b47344b4-c06c-4cc6-a054-577516852b39" d="M1064.46686,152.45654c2.86084-.26587,2.75342-3.29565,4.125-5.0393-2.37549-3.5354-8.10742-2.25415-6.208,2.32763C1062.69879,150.96045,1062.8736,152.60474,1064.46686,152.45654Z"/><path class="b47344b4-c06c-4cc6-a054-577516852b39" d="M493.18091,48.07739c-1.64136,2.30811-1.29614,4.70044.66382,6.83081C496.499,53.75391,495.74023,45.90527,493.18091,48.07739Z"/><path class="b47344b4-c06c-4cc6-a054-577516852b39" d="M935.27,99.5127a5.57107,5.57107,0,0,0,.63037,6.68994C938.24512,105.18945,937.90356,97.64673,935.27,99.5127Z"/><path class="b47344b4-c06c-4cc6-a054-577516852b39" d="M1093.983,119.79443c-2.47754,2.73169-3.72168,5.36914-2.32519,8.9795C1094.76715,126.30591,1095.21783,123.46729,1093.983,119.79443Z"/><path class="b47344b4-c06c-4cc6-a054-577516852b39" d="M1053.84039,145.43213c2.36573-.53613,2.32032-4.99-.20556-4.82349C1051.23151,141.04126,1051.11237,145.356,1053.84039,145.43213Z"/><path class="b47344b4-c06c-4cc6-a054-577516852b39" d="M1020.51373,112.18457c.02686-.56421,1.2168-4.00513-.938-3.92969C1016.56354,108.13062,1016.13971,112.88013,1020.51373,112.18457Z"/><path class="b47344b4-c06c-4cc6-a054-577516852b39" d="M1352.48053,2375.94745c-1.31787.793-2.8208,3.75659-.23438,3.718C1354.78278,2379.79535,1355.10309,2374.705,1352.48053,2375.94745Z"/><path class="b47344b4-c06c-4cc6-a054-577516852b39" d="M0,2313.62616v5.918a13.98591,13.98591,0,0,0,8.83521-3.25226C5.845,2315.30414,2.90723,2314.432,0,2313.62616Z"/><path class="b47344b4-c06c-4cc6-a054-577516852b39" d="M0,2355.77551c.16278-.03552.3205-.06207.48706-.10418a5.81626,5.81626,0,0,0-.48706-.47Z"/><path class="b47344b4-c06c-4cc6-a054-577516852b39" d="M101.25586,2355.05975c-2.39575-6.66235,10.72436-7.77588,8.20264-19.10083-1.02539-6.397-2.04688-8.65771-8.25-7.53125-8.92017,2.75733-19.15332-1.71313-27.39356,1.04908-2.13818,4.39575,3.77442,7.01709-.084,10.16626-7.52295,3.71533-3.35742-9.65137-9.61084-2.86426-8.55567,4.51123-1.40235-8.11646-5.24854-6.65747-5.54712,1.50683-4.739-4.67212-7.06738-5.54883-4.56885-.13013-6.17481,7.04077-9.97461,3.67651-4.22168-3.738-7.60669-1.90039-10.78345.032-8.88794,7.13477-13.51928-6.05078-19.36059,1.89649-4.17115,4.60718-11.27979-.03687-5.34595,8.20142,3.636,1.56713.17065,5.05981-1.99121,2.008-1.272-.07934-2.54419-.15869-4.07251-.25415-.208,3.18408,2.56567,4.54663,3.26221,7.09863,1.47094,5.39039,2.10449,5.27759,5.86108.53492.58862-.74317,1.03711-2.27637,1.96313-1.6941,6.46192,4.063,13.26636-.62573,19.085.5105,8.61035,1.6814,15.69995.9895,23.19384-2.98413,6.54956-3.25683,8.44361,12.61426-3.33545,10.29981.56348,2.84619,2.31763,4.70922,4.01026,4.7456a13.68589,13.68589,0,0,1,11.59131,5.86328c2.93872,3.69092,7.606-1.8977,9.3374-4.40258,2.32178-4.7754,7.03271-4.52247,11.02954-5.676,3.8-1.27124,6.19409,5.49341,1.54834,5.57422-3.2688-.01563-10.86963,7.59546-8.31958,10.43872,3.03906,4.66479,13.79956-11.12573,20.156-12.23584C100.91846,2357.66205,101.90015,2356.58173,101.25586,2355.05975Zm-10.64551-9.11132c-.95068,1.938-4.20093-.10108-2.97583-1.8147C88.7561,2342.269,91.884,2343.94794,90.61035,2345.94843Z"/><path class="b47344b4-c06c-4cc6-a054-577516852b39" d="M135.05249,2312.9516c-7.2478-2.69946-14.57715-4.42578-22.259-1.94873C119.96191,2314.64838,127.16919,2317.83026,135.05249,2312.9516Z"/><path class="b47344b4-c06c-4cc6-a054-577516852b39" d="M167.89893,2320.32782c.77612-5.48071-10.96094-5.01416-14.66358-6.85962q-.57422.94373-1.14819,1.88745C156.16162,2316.81171,163.65137,2325.43158,167.89893,2320.32782Z"/><path class="b47344b4-c06c-4cc6-a054-577516852b39" d="M374.29736,2374.76239c2.17945,2.13672,9.08033-.436,5.78308-3.47217C378.26025,2372.27557,375.34937,2371.53143,374.29736,2374.76239Z"/><path class="b47344b4-c06c-4cc6-a054-577516852b39" d="M29.28369,2350.1911c-3.54394-.05664-2.47656,4.98145.67822,4.57788C33.61353,2353.56537,32.70752,2350.76215,29.28369,2350.1911Z"/><path class="b47344b4-c06c-4cc6-a054-577516852b39" d="M155.73853,10.79248c1.87719-.66357,3.96191-1.81885,2.00781-3.78857-1.89551-1.91114-3.05347.79589-4.34912,1.89038l.00073.00049C151.866,11.55859,153.84082,12.80566,155.73853,10.79248Z"/><path class="b47344b4-c06c-4cc6-a054-577516852b39" d="M71.91772,2236.23993c-.85717,1.37622.53248,1.48828,1.10718,1.8501.9253.582,1.74463.116,2.30713-.77832C75.1543,2235.9079,72.75024,2234.76288,71.91772,2236.23993Z"/><path class="b47344b4-c06c-4cc6-a054-577516852b39" d="M76.61084,2238.61444c1.88794,1.10059,3.34619,2.79419,4.544.11182-.76075-.55664-1.52125-1.113-1.52955-1.11914C77.35254,2236.63861,77.27,2238.0705,76.61084,2238.61444Z"/></g></g></svg>